E2/5 - New series. Five jockeys prepare for the famous jump meeting

	
New series. An insight into the world of Irish National Hunt racing, following five jockeys as they prepare to participate at the illustrious Cheltenham Festival. The documentary records their lifestyle both on and off the track, including the risks, the sacrifice and the physical challenges that go along with being at the top of the sport

File Info:
Complete name                            : The Irish Road to Cheltenham Part 2of5 [RTE Ireland] HQ PDTV x264 AC3 DeViL303.mkv
Format                                   : Matroska
Format version                           : Version 1
File size                                : 264 MiB
Duration                                 : 24mn 37s
Overall bit rate mode                    : Variable
Overall bit rate                         : 1 497 Kbps
Encoded date                             : UTC 2013-03-14 21:29:57
Writing application                      : mkvmerge v2.5.3 ('Boogie') built on Mar  7 2009 15:00:41
Writing library                          : libebml v0.7.7 + libmatroska v0.8.1

Video
ID                                       : 1
Format                                   : AVC
Format/Info                              : Advanced Video Codec
Format profile                           : High@L3.0
Format settings, CABAC                   : Yes
Format settings, ReFrames                : 3 frames
Codec ID                                 : V_MPEG4/ISO/AVC
Duration                                 : 24mn 37s
Bit rate mode                            : Variable
Bit rate                                 : 1 303 Kbps
Maximum bit rate                         : 12.0 Mbps
Width                                    : 720 pixels
Height                                   : 576 pixels
Display aspect ratio                     : 16:9
Original display aspect ratio            : 5:4
Frame rate mode                          : Constant
Frame rate                               : 25.000 fps
Standard                                 : PAL
Color space                              : YUV
Chroma subsampling                       : 4:2:0
Bit depth                                : 8 bits
Scan type                                : Progressive
Bits/(Pixel*Frame)                       : 0.126
Stream size                              : 225 MiB (85%)
Writing library                          : x264 core 93 r1542M 5b86182
Encoding settings                        : cabac=1 / ref=3 / deblock=1:-1:-1 / 
Default                                  : Yes
Forced                                   : No

Audio
ID                                       : 2
Format                                   : AC-3
Format/Info                              : Audio Coding 3
Mode extension                           : CM (complete main)
Format settings, Endianness              : Big
Codec ID                                 : A_AC3
Duration                                 : 24mn 37s
Bit rate mode                            : Constant
Bit rate                                 : 192 Kbps
Channel(s)                               : 2 channels
Channel positions                        : Front: L R
Sampling rate                            : 48.0 KHz
Bit depth                                : 16 bits
Compression mode                         : Lossy
Stream size                              : 33.8 MiB (13%)
Default                                  : Yes
Forced                                   : No

Text
ID                                       : 3
Format                                   : SSA
Codec ID                                 : S_TEXT/SSA
Codec ID/Info                            : Sub Station Alpha
Compression mode                         : Lossless
Default                                  : Yes
Forced                                   : No

Menu
00:00:00.000                             : en:Chapter 1n[00:00:00]
00:02:14.352                             : en:Chapter 2n[00:02:14]
00:04:28.705                             : en:Chapter 3n[00:04:28]
00:06:43.058                             : en:Chapter 4n[00:06:43]
00:08:57.410                             : en:Chapter 5n[00:08:57]
00:11:11.763                             : en:Chapter 6n[00:11:11]
00:13:26.116                             : en:Chapter 7n[00:13:26]
00:15:40.469                             : en:Chapter 8n[00:15:40]
00:17:54.821                             : en:Chapter 9n[00:17:54]
00:20:09.174                             : en:Chapter 10n[00:20:09]
00:22:23.527                             : en:Chapter 11n[00:22:23]
00:24:35.880                             : en:Chapter 12n[00:24:35]

